<svg xmlns="http://www.w3.org/2000/svg" viewBox="0 0 128 128">
  <path fill="#fff" d="M64 0C28.7 0 0 28.7 0 64s28.7 64 64 64s64-28.7 64-64S99.3 0 64 0"/>
  <path fill="#ff7d00" d="m79.4 39.5l4.1 16.3l16.8-2.7l-4.1-16.3c-1.1-4.4-5.1-7.2-9.5-6.6l-2.7.4c-4.4.7-7.7 4.2-4.6 8.9"/>
  <path fill="#ff7d00" d="m48.6 88.5l-4.1-16.3l-16.8 2.7l4.1 16.3c1.1 4.4 5.1 7.2 9.5 6.6l2.7-.4c4.4-.7 7.7-4.2 4.6-8.9"/>
  <path fill="#ff7d00" d="M88.4 48.6L72.1 52.7l2.7 16.8l16.3-4.1c4.4-1.1 7.2-5.1 6.6-9.5l-.4-2.7c-.7-4.4-4.2-7.7-8.9-4.6"/>
  <path fill="#ff7d00" d="M39.6 79.4L55.9 75.3l-2.7-16.8l-16.3 4.1c-4.4 1.1-7.2 5.1-6.6 9.5l.4 2.7c.7 4.4 4.2 7.7 8.9 4.6"/>
  <path fill="#4f46e5" d="M64 40a24 24 0 1 0 0 48a24 24 0 0 0 0-48"/>
</svg>